%TF.GenerationSoftware,KiCad,Pcbnew,9.0.7*%
%TF.CreationDate,2026-03-19T13:49:57-03:00*%
%TF.ProjectId,circuito_pituca,63697263-7569-4746-9f5f-706974756361,1.0*%
%TF.SameCoordinates,Original*%
%TF.FileFunction,Copper,L1,Top*%
%TF.FilePolarity,Positive*%
%FSLAX46Y46*%
G04 Gerber Fmt 4.6, Leading zero omitted, Abs format (unit mm)*
G04 Created by KiCad (PCBNEW 9.0.7) date 2026-03-19 13:49:57*
%MOMM*%
%LPD*%
G01*
G04 APERTURE LIST*
G04 Aperture macros list*
%AMRoundRect*
0 Rectangle with rounded corners*
0 $1 Rounding radius*
0 $2 $3 $4 $5 $6 $7 $8 $9 X,Y pos of 4 corners*
0 Add a 4 corners polygon primitive as box body*
4,1,4,$2,$3,$4,$5,$6,$7,$8,$9,$2,$3,0*
0 Add four circle primitives for the rounded corners*
1,1,$1+$1,$2,$3*
1,1,$1+$1,$4,$5*
1,1,$1+$1,$6,$7*
1,1,$1+$1,$8,$9*
0 Add four rect primitives between the rounded corners*
20,1,$1+$1,$2,$3,$4,$5,0*
20,1,$1+$1,$4,$5,$6,$7,0*
20,1,$1+$1,$6,$7,$8,$9,0*
20,1,$1+$1,$8,$9,$2,$3,0*%
G04 Aperture macros list end*
%TA.AperFunction,SMDPad,CuDef*%
%ADD10RoundRect,0.250000X-0.325000X-0.450000X0.325000X-0.450000X0.325000X0.450000X-0.325000X0.450000X0*%
%TD*%
%TA.AperFunction,ComponentPad*%
%ADD11R,2.000000X2.000000*%
%TD*%
%TA.AperFunction,ComponentPad*%
%ADD12C,2.000000*%
%TD*%
%TA.AperFunction,SMDPad,CuDef*%
%ADD13RoundRect,0.250000X-1.500000X-0.550000X1.500000X-0.550000X1.500000X0.550000X-1.500000X0.550000X0*%
%TD*%
%TA.AperFunction,SMDPad,CuDef*%
%ADD14RoundRect,0.250000X0.450000X-0.262500X0.450000X0.262500X-0.450000X0.262500X-0.450000X-0.262500X0*%
%TD*%
%TA.AperFunction,ComponentPad*%
%ADD15R,1.508000X1.508000*%
%TD*%
%TA.AperFunction,ComponentPad*%
%ADD16C,1.508000*%
%TD*%
%TA.AperFunction,SMDPad,CuDef*%
%ADD17RoundRect,0.250000X0.262500X0.450000X-0.262500X0.450000X-0.262500X-0.450000X0.262500X-0.450000X0*%
%TD*%
%TA.AperFunction,SMDPad,CuDef*%
%ADD18RoundRect,0.150000X-0.587500X-0.150000X0.587500X-0.150000X0.587500X0.150000X-0.587500X0.150000X0*%
%TD*%
%TA.AperFunction,ComponentPad*%
%ADD19O,3.800000X1.900000*%
%TD*%
%TA.AperFunction,ComponentPad*%
%ADD20O,1.900000X3.800000*%
%TD*%
%TA.AperFunction,ComponentPad*%
%ADD21R,1.700000X1.700000*%
%TD*%
%TA.AperFunction,ComponentPad*%
%ADD22C,1.700000*%
%TD*%
%TA.AperFunction,Conductor*%
%ADD23C,1.000000*%
%TD*%
%TA.AperFunction,Conductor*%
%ADD24C,0.220000*%
%TD*%
%TA.AperFunction,Conductor*%
%ADD25C,0.500000*%
%TD*%
G04 APERTURE END LIST*
D10*
%TO.P,D1,1,K*%
%TO.N,GND*%
X136950000Y-97000000D03*
%TO.P,D1,2,A*%
%TO.N,Net-(D1-A)*%
X139000000Y-97000000D03*
%TD*%
D11*
%TO.P,BZ1,1,+*%
%TO.N,+5V*%
X108000000Y-85800000D03*
D12*
%TO.P,BZ1,2,-*%
%TO.N,Net-(BZ1--)*%
X108000000Y-78200000D03*
%TD*%
D13*
%TO.P,C1,1*%
%TO.N,+5V*%
X119300000Y-80000000D03*
%TO.P,C1,2*%
%TO.N,GND*%
X124700000Y-80000000D03*
%TD*%
D14*
%TO.P,R1,1*%
%TO.N,GPIO25_BUZZER*%
X116000000Y-91825000D03*
%TO.P,R1,2*%
%TO.N,Net-(Q2-B)*%
X116000000Y-90000000D03*
%TD*%
D15*
%TO.P,U2,1,GND*%
%TO.N,GND*%
X134000000Y-106190000D03*
D16*
%TO.P,U2,2,VCC_IN*%
%TO.N,3V3*%
X134000000Y-108730000D03*
%TO.P,U2,3,SCL*%
%TO.N,GPIO22_SCL*%
X134000000Y-111270000D03*
%TO.P,U2,4,SDA*%
%TO.N,GPIO21_SDA*%
X134000000Y-113810000D03*
%TD*%
D17*
%TO.P,R3,1*%
%TO.N,GPIO4_SETUP*%
X134825000Y-95000000D03*
%TO.P,R3,2*%
%TO.N,3V3*%
X133000000Y-95000000D03*
%TD*%
D18*
%TO.P,Q2,1,B*%
%TO.N,Net-(Q2-B)*%
X119062500Y-90050000D03*
%TO.P,Q2,2,E*%
%TO.N,GND*%
X119062500Y-91950000D03*
%TO.P,Q2,3,C*%
%TO.N,Net-(BZ1--)*%
X120937500Y-91000000D03*
%TD*%
D16*
%TO.P,S1,1*%
%TO.N,GPIO4_SETUP*%
X135000000Y-92500000D03*
%TO.P,S1,2*%
%TO.N,GND*%
X135000000Y-87500000D03*
%TD*%
D17*
%TO.P,R2,1*%
%TO.N,Net-(D1-A)*%
X138800000Y-100000000D03*
%TO.P,R2,2*%
%TO.N,GPIO2_STATUS_LED*%
X136975000Y-100000000D03*
%TD*%
D19*
%TO.P,J1,1*%
%TO.N,+5V*%
X131930000Y-83750000D03*
%TO.P,J1,2*%
%TO.N,GND*%
X131930000Y-77820000D03*
D20*
%TO.P,J1,3*%
X136660000Y-80150000D03*
%TD*%
D21*
%TO.P,J3,1,Pin_1*%
%TO.N,unconnected-(J3-Pin_1-Pad1)*%
X104850000Y-137080000D03*
D22*
%TO.P,J3,2,Pin_2*%
%TO.N,unconnected-(J3-Pin_2-Pad2)*%
X104850000Y-134540000D03*
%TO.P,J3,3,Pin_3*%
%TO.N,unconnected-(J3-Pin_3-Pad3)*%
X104850000Y-132000000D03*
%TO.P,J3,4,Pin_4*%
%TO.N,unconnected-(J3-Pin_4-Pad4)*%
X104850000Y-129460000D03*
%TO.P,J3,5,Pin_5*%
%TO.N,unconnected-(J3-Pin_5-Pad5)*%
X104850000Y-126920000D03*
%TO.P,J3,6,Pin_6*%
%TO.N,unconnected-(J3-Pin_6-Pad6)*%
X104850000Y-124380000D03*
%TO.P,J3,7,Pin_7*%
%TO.N,unconnected-(J3-Pin_7-Pad7)*%
X104850000Y-121840000D03*
%TO.P,J3,8,Pin_8*%
%TO.N,unconnected-(J3-Pin_8-Pad8)*%
X104850000Y-119300000D03*
%TO.P,J3,9,Pin_9*%
%TO.N,unconnected-(J3-Pin_9-Pad9)*%
X104850000Y-116760000D03*
%TO.P,J3,10,Pin_10*%
%TO.N,unconnected-(J3-Pin_10-Pad10)*%
X104850000Y-114220000D03*
%TO.P,J3,11,Pin_11*%
%TO.N,unconnected-(J3-Pin_11-Pad11)*%
X104850000Y-111680000D03*
%TO.P,J3,12,Pin_12*%
%TO.N,unconnected-(J3-Pin_12-Pad12)*%
X104850000Y-109140000D03*
%TO.P,J3,13,Pin_13*%
%TO.N,unconnected-(J3-Pin_13-Pad13)*%
X104850000Y-106600000D03*
%TO.P,J3,14,Pin_14*%
%TO.N,GND*%
X104850000Y-104060000D03*
%TO.P,J3,15,Pin_15*%
%TO.N,+5V*%
X104850000Y-101520000D03*
%TD*%
D21*
%TO.P,M1,1,PWM*%
%TO.N,GPIO23_PWM_SERVO*%
X123910000Y-86100000D03*
D22*
%TO.P,M1,2,+*%
%TO.N,+5V*%
X121370000Y-86100000D03*
%TO.P,M1,3,-*%
%TO.N,GND*%
X118830000Y-86100000D03*
%TD*%
D21*
%TO.P,J2,1,Pin_1*%
%TO.N,3V3*%
X130270000Y-101400000D03*
D22*
%TO.P,J2,2,Pin_2*%
%TO.N,GND*%
X130270000Y-103940000D03*
%TO.P,J2,3,Pin_3*%
%TO.N,unconnected-(J2-Pin_3-Pad3)*%
X130270000Y-106480000D03*
%TO.P,J2,4,Pin_4*%
%TO.N,GPIO2_STATUS_LED*%
X130270000Y-109020000D03*
%TO.P,J2,5,Pin_5*%
%TO.N,GPIO4_SETUP*%
X130270000Y-111560000D03*
%TO.P,J2,6,Pin_6*%
%TO.N,unconnected-(J2-Pin_6-Pad6)*%
X130270000Y-114100000D03*
%TO.P,J2,7,Pin_7*%
%TO.N,unconnected-(J2-Pin_7-Pad7)*%
X130270000Y-116640000D03*
%TO.P,J2,8,Pin_8*%
%TO.N,GPIO25_BUZZER*%
X130270000Y-119180000D03*
%TO.P,J2,9,Pin_9*%
%TO.N,unconnected-(J2-Pin_9-Pad9)*%
X130270000Y-121720000D03*
%TO.P,J2,10,Pin_10*%
%TO.N,unconnected-(J2-Pin_10-Pad10)*%
X130270000Y-124260000D03*
%TO.P,J2,11,Pin_11*%
%TO.N,GPIO21_SDA*%
X130270000Y-126800000D03*
%TO.P,J2,12,Pin_12*%
%TO.N,unconnected-(J2-Pin_12-Pad12)*%
X130270000Y-129340000D03*
%TO.P,J2,13,Pin_13*%
%TO.N,unconnected-(J2-Pin_13-Pad13)*%
X130270000Y-131880000D03*
%TO.P,J2,14,Pin_14*%
%TO.N,GPIO22_SCL*%
X130270000Y-134420000D03*
%TO.P,J2,15,Pin_15*%
%TO.N,GPIO23_PWM_SERVO*%
X130270000Y-136960000D03*
%TD*%
D23*
%TO.N,+5V*%
X119300000Y-80000000D02*
X119300000Y-84030000D01*
D24*
X104850000Y-101520000D02*
X104850000Y-101540000D01*
D23*
X119300000Y-84030000D02*
X121370000Y-86100000D01*
D25*
%TO.N,Net-(BZ1--)*%
X108832384Y-78200000D02*
X108000000Y-78200000D01*
X120937500Y-90305116D02*
X108832384Y-78200000D01*
X120937500Y-91000000D02*
X120937500Y-90305116D01*
%TO.N,GND*%
X136660000Y-85840000D02*
X136660000Y-80150000D01*
X136950000Y-97000000D02*
X136950000Y-89450000D01*
D23*
X129750000Y-80000000D02*
X131930000Y-77820000D01*
D25*
X106952500Y-104060000D02*
X104850000Y-104060000D01*
X119062500Y-91950000D02*
X106952500Y-104060000D01*
X135000000Y-87500000D02*
X136660000Y-85840000D01*
X136950000Y-89450000D02*
X135000000Y-87500000D01*
D23*
X124700000Y-80000000D02*
X129750000Y-80000000D01*
X134000000Y-106190000D02*
X132380000Y-106190000D01*
X132380000Y-106190000D02*
X130250000Y-104060000D01*
D25*
%TO.N,Net-(D1-A)*%
X139000000Y-97000000D02*
X139000000Y-99800000D01*
X139000000Y-99800000D02*
X138800000Y-100000000D01*
%TO.N,GPIO23_PWM_SERVO*%
X123910000Y-86100000D02*
X123910000Y-130600000D01*
X123910000Y-130600000D02*
X130270000Y-136960000D01*
%TO.N,GPIO25_BUZZER*%
X125231000Y-83710000D02*
X122000000Y-80479000D01*
X120000000Y-76000000D02*
X107000000Y-76000000D01*
X130250000Y-119300000D02*
X125231000Y-114281000D01*
X122000000Y-78000000D02*
X120000000Y-76000000D01*
X125231000Y-114281000D02*
X125231000Y-83710000D01*
X107000000Y-76000000D02*
X103000000Y-80000000D01*
X103000000Y-80000000D02*
X103000000Y-86000000D01*
X122000000Y-80479000D02*
X122000000Y-78000000D01*
X108825000Y-91825000D02*
X116000000Y-91825000D01*
X103000000Y-86000000D02*
X108825000Y-91825000D01*
%TO.N,GPIO2_STATUS_LED*%
X136975000Y-107487412D02*
X134507412Y-109955000D01*
X131065000Y-109955000D02*
X130250000Y-109140000D01*
X134507412Y-109955000D02*
X131065000Y-109955000D01*
X136975000Y-100000000D02*
X136975000Y-107487412D01*
D23*
%TO.N,3V3*%
X134000000Y-108730000D02*
X135475000Y-107255000D01*
X133000000Y-95700000D02*
X133000000Y-95000000D01*
X135475000Y-98175000D02*
X133000000Y-95700000D01*
D25*
X133000000Y-98670000D02*
X130270000Y-101400000D01*
D23*
X135475000Y-107255000D02*
X135475000Y-98175000D01*
D25*
X133000000Y-95000000D02*
X133000000Y-98670000D01*
%TO.N,GPIO4_SETUP*%
X134825000Y-92675000D02*
X135000000Y-92500000D01*
X134825000Y-95000000D02*
X134825000Y-92675000D01*
%TO.N,GPIO22_SCL*%
X134000000Y-111270000D02*
X135250000Y-112520000D01*
X135250000Y-112520000D02*
X135250000Y-129540000D01*
X135250000Y-129540000D02*
X130250000Y-134540000D01*
%TO.N,GPIO21_SDA*%
X134000000Y-113810000D02*
X134000000Y-123070000D01*
X134000000Y-123070000D02*
X130270000Y-126800000D01*
%TO.N,Net-(Q2-B)*%
X116050000Y-90050000D02*
X116000000Y-90000000D01*
X119062500Y-90050000D02*
X116050000Y-90050000D01*
%TD*%
%TA.AperFunction,Conductor*%
%TO.N,GND*%
G36*
X106205810Y-75520185D02*
G01*
X106251565Y-75572989D01*
X106261509Y-75642147D01*
X106232484Y-75705703D01*
X106226452Y-75712181D01*
X102417052Y-79521578D01*
X102417049Y-79521581D01*
X102370954Y-79590567D01*
X102370955Y-79590568D01*
X102334914Y-79644508D01*
X102278343Y-79781082D01*
X102278340Y-79781092D01*
X102249500Y-79926079D01*
X102249500Y-79926082D01*
X102249500Y-86073918D01*
X102249500Y-86073920D01*
X102249499Y-86073920D01*
X102278340Y-86218907D01*
X102278343Y-86218917D01*
X102334913Y-86355490D01*
X102334914Y-86355492D01*
X102359198Y-86391835D01*
X102359199Y-86391837D01*
X102417043Y-86478410D01*
X102417047Y-86478415D01*
X108346586Y-92407954D01*
X108375400Y-92427206D01*
X108418625Y-92456087D01*
X108469505Y-92490084D01*
X108469507Y-92490085D01*
X108469511Y-92490087D01*
X108606082Y-92546656D01*
X108606087Y-92546658D01*
X108606091Y-92546658D01*
X108606092Y-92546659D01*
X108751079Y-92575500D01*
X108751082Y-92575500D01*
X108751083Y-92575500D01*
X108898917Y-92575500D01*
X114925270Y-92575500D01*
X114992309Y-92595185D01*
X115012951Y-92611819D01*
X115081344Y-92680212D01*
X115230666Y-92772314D01*
X115397203Y-92827499D01*
X115499991Y-92838000D01*
X116500008Y-92837999D01*
X116500016Y-92837998D01*
X116500019Y-92837998D01*
X116556302Y-92832248D01*
X116602797Y-92827499D01*
X116769334Y-92772314D01*
X116918656Y-92680212D01*
X117042712Y-92556156D01*
X117134814Y-92406834D01*
X117189999Y-92240297D01*
X117194116Y-92200001D01*
X117827704Y-92200001D01*
X117827899Y-92202486D01*
X117873718Y-92360198D01*
X117957314Y-92501552D01*
X117957321Y-92501561D01*
X118073438Y-92617678D01*
X118073447Y-92617685D01*
X118214803Y-92701282D01*
X118214806Y-92701283D01*
X118372504Y-92747099D01*
X118372510Y-92747100D01*
X118409350Y-92749999D01*
X118409366Y-92750000D01*
X118812500Y-92750000D01*
X119312500Y-92750000D01*
X119715634Y-92750000D01*
X119715649Y-92749999D01*
X119752489Y-92747100D01*
X119752495Y-92747099D01*
X119910193Y-92701283D01*
X119910196Y-92701282D01*
X120051552Y-92617685D01*
X120051561Y-92617678D01*
X120167678Y-92501561D01*
X120167685Y-92501552D01*
X120251281Y-92360198D01*
X120297100Y-92202486D01*
X120297295Y-92200001D01*
X120297295Y-92200000D01*
X119312500Y-92200000D01*
X119312500Y-92750000D01*
X118812500Y-92750000D01*
X118812500Y-92200000D01*
X117827705Y-92200000D01*
X117827704Y-92200001D01*
X117194116Y-92200001D01*
X117200500Y-92137509D01*
X117200499Y-91699998D01*
X117827704Y-91699998D01*
X117827705Y-91700000D01*
X118812500Y-91700000D01*
X118812500Y-91150000D01*
X118409350Y-91150000D01*
X118372510Y-91152899D01*
X118372504Y-91152900D01*
X118214806Y-91198716D01*
X118214803Y-91198717D01*
X118073447Y-91282314D01*
X118073438Y-91282321D01*
X117957321Y-91398438D01*
X117957314Y-91398447D01*
X117873718Y-91539801D01*
X117827899Y-91697513D01*
X117827704Y-91699998D01*
X117200499Y-91699998D01*
X117200499Y-91512492D01*
X117189999Y-91409703D01*
X117134814Y-91243166D01*
X117042712Y-91093844D01*
X116961049Y-91012181D01*
X116927564Y-90950858D01*
X116932548Y-90881166D01*
X116974420Y-90825233D01*
X117039884Y-90800816D01*
X117048730Y-90800500D01*
X118192672Y-90800500D01*
X118227267Y-90805424D01*
X118372426Y-90847597D01*
X118372429Y-90847597D01*
X118372431Y-90847598D01*
X118409306Y-90850500D01*
X119575500Y-90850500D01*
X119584185Y-90853050D01*
X119593147Y-90851762D01*
X119617187Y-90862740D01*
X119642539Y-90870185D01*
X119648466Y-90877025D01*
X119656703Y-90880787D01*
X119670992Y-90903021D01*
X119688294Y-90922989D01*
X119690581Y-90933503D01*
X119694477Y-90939565D01*
X119699500Y-90974500D01*
X119699500Y-91026000D01*
X119679815Y-91093039D01*
X119627011Y-91138794D01*
X119575500Y-91150000D01*
X119312500Y-91150000D01*
X119312500Y-91700000D01*
X119968185Y-91700000D01*
X120031306Y-91717268D01*
X120089602Y-91751744D01*
X120131224Y-91763836D01*
X120247426Y-91797597D01*
X120247429Y-91797597D01*
X120247431Y-91797598D01*
X120284306Y-91800500D01*
X120284314Y-91800500D01*
X121590686Y-91800500D01*
X121590694Y-91800500D01*
X121627569Y-91797598D01*
X121627571Y-91797597D01*
X121627573Y-91797597D01*
X121669191Y-91785505D01*
X121785398Y-91751744D01*
X121926865Y-91668081D01*
X122043081Y-91551865D01*
X122126744Y-91410398D01*
X122172598Y-91252569D01*
X122175500Y-91215694D01*
X122175500Y-90784306D01*
X122172598Y-90747431D01*
X122126744Y-90589602D01*
X122043081Y-90448135D01*
X122043079Y-90448133D01*
X122043076Y-90448129D01*
X121926870Y-90331923D01*
X121926862Y-90331917D01*
X121785396Y-90248255D01*
X121785394Y-90248254D01*
X121757954Y-90240282D01*
X121699068Y-90202675D01*
X121670933Y-90145397D01*
X121659159Y-90086210D01*
X121659158Y-90086203D01*
X121659156Y-90086198D01*
X121602587Y-89949627D01*
X121602580Y-89949614D01*
X121520452Y-89826701D01*
X121520451Y-89826700D01*
X121415916Y-89722165D01*
X120355877Y-88662126D01*
X119262327Y-87568575D01*
X119228842Y-87507252D01*
X119233826Y-87437560D01*
X119275698Y-87381627D01*
X119311692Y-87362962D01*
X119348219Y-87351094D01*
X119537554Y-87254622D01*
X119591716Y-87215270D01*
X119591717Y-87215270D01*
X118959408Y-86582962D01*
X119022993Y-86565925D01*
X119137007Y-86500099D01*
X119230099Y-86407007D01*
X119295925Y-86292993D01*
X119312962Y-86229408D01*
X119945270Y-86861717D01*
X119945270Y-86861716D01*
X119984622Y-86807555D01*
X119989232Y-86798507D01*
X120037205Y-86747709D01*
X120105025Y-86730912D01*
X120171161Y-86753447D01*
X120210204Y-86798504D01*
X120214949Y-86807817D01*
X120339890Y-86979786D01*
X120490213Y-87130109D01*
X120662179Y-87255048D01*
X120662181Y-87255049D01*
X120662184Y-87255051D01*
X120851588Y-87351557D01*
X121053757Y-87417246D01*
X121263713Y-87450500D01*
X121263714Y-87450500D01*
X121476286Y-87450500D01*
X121476287Y-87450500D01*
X121686243Y-87417246D01*
X121888412Y-87351557D01*
X122077816Y-87255051D01*
X122249792Y-87130104D01*
X122363329Y-87016566D01*
X122424648Y-86983084D01*
X122494340Y-86988068D01*
X122550274Y-87029939D01*
X122567189Y-87060917D01*
X122616202Y-87192328D01*
X122616206Y-87192335D01*
X122702452Y-87307544D01*
X122702455Y-87307547D01*
X122817664Y-87393793D01*
X122817671Y-87393797D01*
X122862618Y-87410561D01*
X122952517Y-87444091D01*
X123012127Y-87450500D01*
X123035497Y-87450499D01*
X123102536Y-87470181D01*
X123148292Y-87522983D01*
X123159500Y-87574499D01*
X123159500Y-130673918D01*
X123159500Y-130673920D01*
X123159499Y-130673920D01*
X123188340Y-130818907D01*
X123188343Y-130818917D01*
X123244912Y-130955488D01*
X123244916Y-130955495D01*
X123270220Y-130993365D01*
X123270221Y-130993368D01*
X123270222Y-130993368D01*
X123327051Y-131078420D01*
X123327052Y-131078421D01*
X128899824Y-136651191D01*
X128933309Y-136712514D01*
X128934616Y-136758270D01*
X128919500Y-136853707D01*
X128919500Y-137066286D01*
X128952753Y-137276239D01*
X129018444Y-137478414D01*
X129114951Y-137667820D01*
X129239890Y-137839786D01*
X129390213Y-137990109D01*
X129562179Y-138115048D01*
X129562181Y-138115049D01*
X129562184Y-138115051D01*
X129751588Y-138211557D01*
X129953757Y-138277246D01*
X130163713Y-138310500D01*
X130163714Y-138310500D01*
X130376286Y-138310500D01*
X130376287Y-138310500D01*
X130586243Y-138277246D01*
X130788412Y-138211557D01*
X130977816Y-138115051D01*
X131084580Y-138037483D01*
X131149786Y-137990109D01*
X131149788Y-137990106D01*
X131149792Y-137990104D01*
X131300104Y-137839792D01*
X131300106Y-137839788D01*
X131300109Y-137839786D01*
X131425048Y-137667820D01*
X131425047Y-137667820D01*
X131425051Y-137667816D01*
X131521557Y-137478412D01*
X131587246Y-137276243D01*
X131620500Y-137066287D01*
X131620500Y-136853713D01*
X131587246Y-136643757D01*
X131521557Y-136441588D01*
X131425051Y-136252184D01*
X131425049Y-136252181D01*
X131425048Y-136252179D01*
X131300109Y-136080213D01*
X131149786Y-135929890D01*
X130977820Y-135804951D01*
X130977115Y-135804591D01*
X130969054Y-135800485D01*
X130918259Y-135752512D01*
X130901463Y-135684692D01*
X130923999Y-135618556D01*
X130969054Y-135579515D01*
X130977816Y-135575051D01*
X131035246Y-135533326D01*
X131149786Y-135450109D01*
X131149788Y-135450106D01*
X131149792Y-135450104D01*
X131300104Y-135299792D01*
X131300106Y-135299788D01*
X131300109Y-135299786D01*
X131425048Y-135127820D01*
X131425047Y-135127820D01*
X131425051Y-135127816D01*
X131521557Y-134938412D01*
X131587246Y-134736243D01*
X131620500Y-134526287D01*
X131620500Y-134313713D01*
X131619056Y-134304597D01*
X131628010Y-134235305D01*
X131653845Y-134197521D01*
X135832952Y-130018416D01*
X135889413Y-129933914D01*
X135915084Y-129895495D01*
X135971658Y-129758913D01*
X136000500Y-129613918D01*
X136000500Y-112446082D01*
X136000500Y-112446079D01*
X135971659Y-112301092D01*
X135971658Y-112301091D01*
X135971658Y-112301087D01*
X135971656Y-112301082D01*
X135915086Y-112164509D01*
X135915085Y-112164507D01*
X135882186Y-112115270D01*
X135882185Y-112115268D01*
X135832956Y-112041589D01*
X135832952Y-112041584D01*
X135286268Y-111494900D01*
X135252783Y-111433577D01*
X135251476Y-111387822D01*
X135254500Y-111368731D01*
X135254500Y-111171269D01*
X135254500Y-111171263D01*
X135223610Y-110976236D01*
X135194224Y-110885795D01*
X135162591Y-110788439D01*
X135072944Y-110612499D01*
X135067164Y-110604544D01*
X135043684Y-110538739D01*
X135059508Y-110470685D01*
X135079797Y-110443981D01*
X137557951Y-107965828D01*
X137640084Y-107842907D01*
X137696658Y-107706325D01*
X137708021Y-107649203D01*
X137725500Y-107561332D01*
X137725500Y-101074730D01*
X137734144Y-101045289D01*
X137740668Y-101015303D01*
X137744422Y-101010287D01*
X137745185Y-101007691D01*
X137761819Y-100987049D01*
X137799819Y-100949049D01*
X137861142Y-100915564D01*
X137930834Y-100920548D01*
X137975181Y-100949049D01*
X138068844Y-101042712D01*
X138218166Y-101134814D01*
X138384703Y-101189999D01*
X138487491Y-101200500D01*
X139112508Y-101200499D01*
X139112516Y-101200498D01*
X139112519Y-101200498D01*
X139168802Y-101194748D01*
X139215297Y-101189999D01*
X139381834Y-101134814D01*
X139531156Y-101042712D01*
X139655212Y-100918656D01*
X139747314Y-100769334D01*
X139802499Y-100602797D01*
X139813000Y-100500009D01*
X139812999Y-99499992D01*
X139802499Y-99397203D01*
X139756794Y-99259273D01*
X139750500Y-99220269D01*
X139750500Y-98136867D01*
X139770185Y-98069828D01*
X139789386Y-98048656D01*
X139788549Y-98047819D01*
X139794324Y-98042044D01*
X139917712Y-97918656D01*
X140009814Y-97769334D01*
X140064999Y-97602797D01*
X140075500Y-97500009D01*
X140075499Y-96499992D01*
X140064999Y-96397203D01*
X140009814Y-96230666D01*
X139917712Y-96081344D01*
X139793656Y-95957288D01*
X139644334Y-95865186D01*
X139477797Y-95810001D01*
X139477795Y-95810000D01*
X139375010Y-95799500D01*
X138624998Y-95799500D01*
X138624980Y-95799501D01*
X138522203Y-95810000D01*
X138522200Y-95810001D01*
X138355668Y-95865185D01*
X138355663Y-95865187D01*
X138206342Y-95957289D01*
X138082288Y-96081343D01*
X138082283Y-96081349D01*
X138080241Y-96084661D01*
X138078247Y-96086453D01*
X138077807Y-96087011D01*
X138077711Y-96086935D01*
X138028291Y-96131383D01*
X137959328Y-96142602D01*
X137895247Y-96114755D01*
X137869168Y-96084656D01*
X137867319Y-96081659D01*
X137867316Y-96081655D01*
X137743345Y-95957684D01*
X137594124Y-95865643D01*
X137594119Y-95865641D01*
X137427697Y-95810494D01*
X137427690Y-95810493D01*
X137324986Y-95800000D01*
X137200000Y-95800000D01*
X137200000Y-98199999D01*
X137324972Y-98199999D01*
X137324986Y-98199998D01*
X137427697Y-98189505D01*
X137594119Y-98134358D01*
X137594124Y-98134356D01*
X137743345Y-98042315D01*
X137867318Y-97918342D01*
X137869165Y-97915348D01*
X137870969Y-97913724D01*
X137871798Y-97912677D01*
X137871976Y-97912818D01*
X137921110Y-97868621D01*
X137990073Y-97857396D01*
X138054156Y-97885236D01*
X138063980Y-97894381D01*
X138073240Y-97903987D01*
X138082288Y-97918656D01*
X138206344Y-98042712D01*
X138207886Y-98043663D01*
X138214774Y-98050808D01*
X138227226Y-98074641D01*
X138242774Y-98096583D01*
X138244692Y-98108070D01*
X138247129Y-98112735D01*
X138246548Y-98119188D01*
X138249500Y-98136867D01*
X138249500Y-98776652D01*
X138229815Y-98843691D01*
X138190598Y-98882189D01*
X138179692Y-98888917D01*
X138068842Y-98957289D01*
X137975181Y-99050951D01*
X137913858Y-99084436D01*
X137844166Y-99079452D01*
X137799819Y-99050951D01*
X137706157Y-98957289D01*
X137706156Y-98957288D01*
X137556834Y-98865186D01*
X137390297Y-98810001D01*
X137390295Y-98810000D01*
X137287510Y-98799500D01*
X136662498Y-98799500D01*
X136662480Y-98799501D01*
X136612101Y-98804648D01*
X136543408Y-98791878D01*
X136492524Y-98743997D01*
X136475500Y-98681290D01*
X136475500Y-98323999D01*
X136495185Y-98256960D01*
X136547989Y-98211205D01*
X136599500Y-98199999D01*
X136699999Y-98199999D01*
X136700000Y-98199998D01*
X136700000Y-95800000D01*
X136575027Y-95800000D01*
X136575012Y-95800001D01*
X136472302Y-95810494D01*
X136305880Y-95865641D01*
X136305875Y-95865643D01*
X136156654Y-95957684D01*
X136032684Y-96081654D01*
X135940643Y-96230875D01*
X135940641Y-96230880D01*
X135885494Y-96397302D01*
X135885493Y-96397309D01*
X135875000Y-96500013D01*
X135875000Y-96860717D01*
X135855315Y-96927756D01*
X135802511Y-96973511D01*
X135733353Y-96983455D01*
X135669797Y-96954430D01*
X135663319Y-96948398D01*
X135120523Y-96405603D01*
X135087038Y-96344280D01*
X135092022Y-96274589D01*
X135133893Y-96218655D01*
X135195602Y-96194564D01*
X135240297Y-96189999D01*
X135406834Y-96134814D01*
X135556156Y-96042712D01*
X135680212Y-95918656D01*
X135772314Y-95769334D01*
X135827499Y-95602797D01*
X135838000Y-95500009D01*
X135837999Y-94499992D01*
X135827499Y-94397203D01*
X135772314Y-94230666D01*
X135680212Y-94081344D01*
X135611819Y-94012951D01*
X135597115Y-93986023D01*
X135580523Y-93960205D01*
X135579631Y-93954004D01*
X135578334Y-93951628D01*
X135575500Y-93925270D01*
X135575500Y-93690713D01*
X135595185Y-93623674D01*
X135643205Y-93580228D01*
X135657501Y-93572944D01*
X135677912Y-93558114D01*
X135817246Y-93456884D01*
X135817248Y-93456881D01*
X135817252Y-93456879D01*
X135956879Y-93317252D01*
X135956881Y-93317248D01*
X135956884Y-93317246D01*
X136007779Y-93247192D01*
X136072944Y-93157501D01*
X136162591Y-92981561D01*
X136223610Y-92793763D01*
X136227008Y-92772312D01*
X136254500Y-92598736D01*
X136254500Y-92401263D01*
X136223610Y-92206236D01*
X136201277Y-92137503D01*
X136162591Y-92018439D01*
X136072944Y-91842499D01*
X136042430Y-91800500D01*
X135956884Y-91682753D01*
X135817246Y-91543115D01*
X135657504Y-91427058D01*
X135657503Y-91427057D01*
X135657501Y-91427056D01*
X135481561Y-91337409D01*
X135481558Y-91337408D01*
X135293763Y-91276389D01*
X135098736Y-91245500D01*
X135098731Y-91245500D01*
X134901269Y-91245500D01*
X134901264Y-91245500D01*
X134706236Y-91276389D01*
X134518441Y-91337408D01*
X134342495Y-91427058D01*
X134182753Y-91543115D01*
X134043115Y-91682753D01*
X133927058Y-91842495D01*
X133837408Y-92018441D01*
X133776389Y-92206236D01*
X133745500Y-92401263D01*
X133745500Y-92598736D01*
X133776389Y-92793763D01*
X133790763Y-92838000D01*
X133837409Y-92981561D01*
X133927056Y-93157501D01*
X133927058Y-93157504D01*
X134043112Y-93317242D01*
X134044777Y-93319190D01*
X134045178Y-93320084D01*
X134045984Y-93321194D01*
X134045751Y-93321363D01*
X134073358Y-93382947D01*
X134074500Y-93399737D01*
X134074500Y-93925270D01*
X134065855Y-93954710D01*
X134059332Y-93984697D01*
X134055577Y-93989712D01*
X134054815Y-93992309D01*
X134038181Y-94012951D01*
X134000181Y-94050951D01*
X133938858Y-94084436D01*
X133869166Y-94079452D01*
X133824819Y-94050951D01*
X133731157Y-93957289D01*
X133731156Y-93957288D01*
X133581834Y-93865186D01*
X133415297Y-93810001D01*
X133415295Y-93810000D01*
X133312510Y-93799500D01*
X132687498Y-93799500D01*
X132687480Y-93799501D01*
X132584703Y-93810000D01*
X132584700Y-93810001D01*
X132418168Y-93865185D01*
X132418163Y-93865187D01*
X132268842Y-93957289D01*
X132144789Y-94081342D01*
X132052687Y-94230663D01*
X132052686Y-94230666D01*
X131997501Y-94397203D01*
X131997501Y-94397204D01*
X131997500Y-94397204D01*
X131987000Y-94499983D01*
X131987000Y-95500001D01*
X131987001Y-95500019D01*
X131998189Y-95609533D01*
X131997839Y-95609568D01*
X131999500Y-95625259D01*
X131999500Y-95798541D01*
X131999500Y-95798543D01*
X131999499Y-95798543D01*
X132037947Y-95991829D01*
X132037950Y-95991839D01*
X132113364Y-96173907D01*
X132113371Y-96173920D01*
X132226245Y-96342847D01*
X132224717Y-96343867D01*
X132248666Y-96400255D01*
X132249500Y-96414610D01*
X132249500Y-98307769D01*
X132229815Y-98374808D01*
X132213181Y-98395450D01*
X130595449Y-100013181D01*
X130534126Y-100046666D01*
X130507768Y-100049500D01*
X129372129Y-100049500D01*
X129372123Y-100049501D01*
X129312516Y-100055908D01*
X129177671Y-100106202D01*
X129177664Y-100106206D01*
X129062455Y-100192452D01*
X129062452Y-100192455D01*
X128976206Y-100307664D01*
X128976202Y-100307671D01*
X128925908Y-100442517D01*
X128919501Y-100502116D01*
X128919500Y-100502135D01*
X128919500Y-102297870D01*
X128919501Y-102297876D01*
X128925908Y-102357483D01*
X128976202Y-102492328D01*
X128976206Y-102492335D01*
X129062452Y-102607544D01*
X129062455Y-102607547D01*
X129177664Y-102693793D01*
X129177671Y-102693797D01*
X129222618Y-102710561D01*
X129312517Y-102744091D01*
X129372127Y-102750500D01*
X129382685Y-102750499D01*
X129449723Y-102770179D01*
X129470372Y-102786818D01*
X130140591Y-103457037D01*
X130077007Y-103474075D01*
X129962993Y-103539901D01*
X129869901Y-103632993D01*
X129804075Y-103747007D01*
X129787037Y-103810591D01*
X129154728Y-103178282D01*
X129154727Y-103178282D01*
X129115380Y-103232439D01*
X129018904Y-103421782D01*
X128953242Y-103623869D01*
X128953242Y-103623872D01*
X128920000Y-103833753D01*
X128920000Y-104046246D01*
X128953242Y-104256127D01*
X128953242Y-104256130D01*
X129018904Y-104458217D01*
X129115375Y-104647550D01*
X129154728Y-104701716D01*
X129787037Y-104069408D01*
X129804075Y-104132993D01*
X129869901Y-104247007D01*
X129962993Y-104340099D01*
X130077007Y-104405925D01*
X130140590Y-104422962D01*
X129508282Y-105055269D01*
X129508282Y-105055270D01*
X129562452Y-105094626D01*
X129562451Y-105094626D01*
X129571495Y-105099234D01*
X129622292Y-105147208D01*
X129639087Y-105215029D01*
X129616550Y-105281164D01*
X129571499Y-105320202D01*
X129562182Y-105324949D01*
X129390213Y-105449890D01*
X129239890Y-105600213D01*
X129114951Y-105772179D01*
X129018444Y-105961585D01*
X128952753Y-106163760D01*
X128933748Y-106283757D01*
X128919500Y-106373713D01*
X128919500Y-106586287D01*
X128952754Y-106796243D01*
X128991743Y-106916239D01*
X129018444Y-106998414D01*
X129114951Y-107187820D01*
X129239890Y-107359786D01*
X129390213Y-107510109D01*
X129562182Y-107635050D01*
X129570946Y-107639516D01*
X129621742Y-107687491D01*
X129638536Y-107755312D01*
X129615998Y-107821447D01*
X129570946Y-107860484D01*
X129562182Y-107864949D01*
X129390213Y-107989890D01*
X129239890Y-108140213D01*
X129114951Y-108312179D01*
X129018444Y-108501585D01*
X128952753Y-108703760D01*
X128933748Y-108823757D01*
X128919500Y-108913713D01*
X128919500Y-109126287D01*
X128952754Y-109336243D01*
X128991743Y-109456239D01*
X129018444Y-109538414D01*
X129114951Y-109727820D01*
X129239890Y-109899786D01*
X129390213Y-110050109D01*
X129562182Y-110175050D01*
X129570946Y-110179516D01*
X129621742Y-110227491D01*
X129638536Y-110295312D01*
X129615998Y-110361447D01*
X129570946Y-110400484D01*
X129562182Y-110404949D01*
X129390213Y-110529890D01*
X129239890Y-110680213D01*
X129114951Y-110852179D01*
X129018444Y-111041585D01*
X128952753Y-111243760D01*
X128922689Y-111433577D01*
X128919500Y-111453713D01*
X128919500Y-111666287D01*
X128952754Y-111876243D01*
X129006478Y-112041589D01*
X129018444Y-112078414D01*
X129114951Y-112267820D01*
X129239890Y-112439786D01*
X129390213Y-112590109D01*
X129562182Y-112715050D01*
X129570946Y-112719516D01*
X129621742Y-112767491D01*
X129638536Y-112835312D01*
X129615998Y-112901447D01*
X129570946Y-112940484D01*
X129562182Y-112944949D01*
X129390213Y-113069890D01*
X129239890Y-113220213D01*
X129114951Y-113392179D01*
X129018444Y-113581585D01*
X128952753Y-113783760D01*
X128933748Y-113903757D01*
X128919500Y-113993713D01*
X128919500Y-114206287D01*
X128952754Y-114416243D01*
X128991743Y-114536239D01*
X129018444Y-114618414D01*
X129114951Y-114807820D01*
X129239890Y-114979786D01*
X129390213Y-115130109D01*
X129562182Y-115255050D01*
X129570946Y-115259516D01*
X129621742Y-115307491D01*
X129638536Y-115375312D01*
X129615998Y-115441447D01*
X129570946Y-115480484D01*
X129562182Y-115484949D01*
X129390213Y-115609890D01*
X129239890Y-115760213D01*
X129114951Y-115932179D01*
X129018444Y-116121585D01*
X128952753Y-116323760D01*
X128919500Y-116533713D01*
X128919500Y-116608770D01*
X128899815Y-116675809D01*
X128847011Y-116721564D01*
X128777853Y-116731508D01*
X128714297Y-116702483D01*
X128707819Y-116696451D01*
X126017819Y-114006451D01*
X125984334Y-113945128D01*
X125981500Y-113918770D01*
X125981500Y-87401302D01*
X133746000Y-87401302D01*
X133746000Y-87598697D01*
X133776876Y-87793646D01*
X133837873Y-87981373D01*
X133927483Y-88157239D01*
X133953457Y-88192988D01*
X133953457Y-88192989D01*
X134517037Y-87629409D01*
X134534075Y-87692993D01*
X134599901Y-87807007D01*
X134692993Y-87900099D01*
X134807007Y-87965925D01*
X134870590Y-87982962D01*
X134307009Y-88546541D01*
X134307010Y-88546542D01*
X134342755Y-88572512D01*
X134342768Y-88572520D01*
X134518626Y-88662126D01*
X134706353Y-88723123D01*
X134901303Y-88754000D01*
X135098697Y-88754000D01*
X135293646Y-88723123D01*
X135481373Y-88662126D01*
X135657241Y-88572516D01*
X135692988Y-88546543D01*
X135692988Y-88546541D01*
X135129410Y-87982962D01*
X135192993Y-87965925D01*
X135307007Y-87900099D01*
X135400099Y-87807007D01*
X135465925Y-87692993D01*
X135482962Y-87629409D01*
X136046541Y-88192988D01*
X136046543Y-88192988D01*
X136072516Y-88157241D01*
X136162126Y-87981373D01*
X136223123Y-87793646D01*
X136254000Y-87598697D01*
X136254000Y-87401302D01*
X136223123Y-87206353D01*
X136162126Y-87018626D01*
X136072520Y-86842768D01*
X136072512Y-86842755D01*
X136046542Y-86807010D01*
X136046541Y-86807009D01*
X135482962Y-87370589D01*
X135465925Y-87307007D01*
X135400099Y-87192993D01*
X135307007Y-87099901D01*
X135192993Y-87034075D01*
X135129409Y-87017037D01*
X135692989Y-86453457D01*
X135657239Y-86427483D01*
X135481373Y-86337873D01*
X135293646Y-86276876D01*
X135098697Y-86246000D01*
X134901303Y-86246000D01*
X134706353Y-86276876D01*
X134518626Y-86337873D01*
X134342762Y-86427482D01*
X134342760Y-86427483D01*
X134307010Y-86453456D01*
X134307010Y-86453457D01*
X134870591Y-87017037D01*
X134807007Y-87034075D01*
X134692993Y-87099901D01*
X134599901Y-87192993D01*
X134534075Y-87307007D01*
X134517037Y-87370590D01*
X133953457Y-86807010D01*
X133953456Y-86807010D01*
X133927483Y-86842760D01*
X133927482Y-86842762D01*
X133837873Y-87018626D01*
X133776876Y-87206353D01*
X133746000Y-87401302D01*
X125981500Y-87401302D01*
X125981500Y-83636079D01*
X125981452Y-83635837D01*
X129529500Y-83635837D01*
X129529500Y-83864162D01*
X129565215Y-84089660D01*
X129635770Y-84306803D01*
X129704889Y-84442455D01*
X129739421Y-84510228D01*
X129873621Y-84694937D01*
X130035063Y-84856379D01*
X130219772Y-84990579D01*
X130315884Y-85039550D01*
X130423196Y-85094229D01*
X130423198Y-85094229D01*
X130423201Y-85094231D01*
X130539592Y-85132049D01*
X130640339Y-85164784D01*
X130865838Y-85200500D01*
X130865843Y-85200500D01*
X132994162Y-85200500D01*
X133219660Y-85164784D01*
X133436799Y-85094231D01*
X133640228Y-84990579D01*
X133824937Y-84856379D01*
X133986379Y-84694937D01*
X134120579Y-84510228D01*
X134224231Y-84306799D01*
X134294784Y-84089660D01*
X134311432Y-83984549D01*
X134330500Y-83864162D01*
X134330500Y-83635837D01*
X134294784Y-83410339D01*
X134224229Y-83193196D01*
X134120578Y-82989771D01*
X133986379Y-82805063D01*
X133824937Y-82643621D01*
X133640228Y-82509421D01*
X133436803Y-82405770D01*
X133219660Y-82335215D01*
X132994162Y-82299500D01*
X132994157Y-82299500D01*
X130865843Y-82299500D01*
X130865838Y-82299500D01*
X130640339Y-82335215D01*
X130423196Y-82405770D01*
X130219771Y-82509421D01*
X130035061Y-82643622D01*
X129873622Y-82805061D01*
X129739421Y-82989771D01*
X129635770Y-83193196D01*
X129565215Y-83410339D01*
X129529500Y-83635837D01*
X125981452Y-83635837D01*
X125952659Y-83491092D01*
X125952658Y-83491091D01*
X125952658Y-83491087D01*
X125896084Y-83354505D01*
X125863186Y-83305270D01*
X125863185Y-83305268D01*
X125813956Y-83231589D01*
X125813952Y-83231584D01*
X124094048Y-81511680D01*
X124060563Y-81450357D01*
X124065547Y-81380665D01*
X124107419Y-81324732D01*
X124172883Y-81300315D01*
X124181729Y-81299999D01*
X124450000Y-81299999D01*
X124950000Y-81299999D01*
X126249972Y-81299999D01*
X126249986Y-81299998D01*
X126352697Y-81289505D01*
X126519119Y-81234358D01*
X126519124Y-81234356D01*
X126668345Y-81142315D01*
X126792315Y-81018345D01*
X126884356Y-80869124D01*
X126884358Y-80869119D01*
X126939505Y-80702697D01*
X126939506Y-80702690D01*
X126949999Y-80599986D01*
X126950000Y-80599973D01*
X126950000Y-80250000D01*
X124950000Y-80250000D01*
X124950000Y-81299999D01*
X124450000Y-81299999D01*
X124450000Y-79750000D01*
X124950000Y-79750000D01*
X126949999Y-79750000D01*
X126949999Y-79400028D01*
X126949998Y-79400013D01*
X126939505Y-79297302D01*
X126884358Y-79130880D01*
X126884356Y-79130875D01*
X126792315Y-78981654D01*
X126668345Y-78857684D01*
X126519124Y-78765643D01*
X126519119Y-78765641D01*
X126352697Y-78710494D01*
X126352690Y-78710493D01*
X126249986Y-78700000D01*
X124950000Y-78700000D01*
X124950000Y-79750000D01*
X124450000Y-79750000D01*
X124450000Y-78700000D01*
X123150028Y-78700000D01*
X123150012Y-78700001D01*
X123047302Y-78710494D01*
X122913504Y-78754831D01*
X122843676Y-78757233D01*
X122783634Y-78721501D01*
X122752441Y-78658981D01*
X122750500Y-78637125D01*
X122750500Y-77926079D01*
X122721659Y-77781092D01*
X122721658Y-77781091D01*
X122721658Y-77781087D01*
X122717054Y-77769972D01*
X122669231Y-77654515D01*
X122665085Y-77644508D01*
X122665084Y-77644505D01*
X122665082Y-77644502D01*
X122665080Y-77644498D01*
X122615302Y-77570000D01*
X129551522Y-77570000D01*
X130497599Y-77570000D01*
X130480924Y-77586675D01*
X130430896Y-77673325D01*
X130405000Y-77769972D01*
X130405000Y-77870028D01*
X130430896Y-77966675D01*
X130480924Y-78053325D01*
X130497599Y-78070000D01*
X129551522Y-78070000D01*
X129565704Y-78159544D01*
X129636230Y-78376604D01*
X129739849Y-78579966D01*
X129874004Y-78764614D01*
X130035385Y-78925995D01*
X130220033Y-79060150D01*
X130423395Y-79163769D01*
X130640455Y-79234295D01*
X130865884Y-79270000D01*
X131680000Y-79270000D01*
X131680000Y-78200000D01*
X132180000Y-78200000D01*
X132180000Y-79270000D01*
X132994116Y-79270000D01*
X133219544Y-79234295D01*
X133436604Y-79163769D01*
X133589463Y-79085883D01*
X135210000Y-79085883D01*
X135210000Y-79900000D01*
X136280000Y-79900000D01*
X136280000Y-80400000D01*
X135210000Y-80400000D01*
X135210000Y-81214116D01*
X135245704Y-81439544D01*
X135316230Y-81656604D01*
X135419849Y-81859966D01*
X135554004Y-82044614D01*
X135715385Y-82205995D01*
X135900033Y-82340150D01*
X136103395Y-82443769D01*
X136320455Y-82514295D01*
X136410000Y-82528478D01*
X136410000Y-81582401D01*
X136426675Y-81599076D01*
X136513325Y-81649104D01*
X136609972Y-81675000D01*
X136710028Y-81675000D01*
X136806675Y-81649104D01*
X136893325Y-81599076D01*
X136910000Y-81582401D01*
X136910000Y-82528477D01*
X136999544Y-82514295D01*
X137216604Y-82443769D01*
X137419966Y-82340150D01*
X137604614Y-82205995D01*
X137765995Y-82044614D01*
X137900150Y-81859966D01*
X138003769Y-81656604D01*
X138074295Y-81439544D01*
X138110000Y-81214116D01*
X138110000Y-80400000D01*
X137040000Y-80400000D01*
X137040000Y-79900000D01*
X138110000Y-79900000D01*
X138110000Y-79085883D01*
X138074295Y-78860455D01*
X138003769Y-78643395D01*
X137900150Y-78440033D01*
X137765995Y-78255385D01*
X137604614Y-78094004D01*
X137419966Y-77959849D01*
X137216602Y-77856229D01*
X136999541Y-77785703D01*
X136910000Y-77771521D01*
X136910000Y-78717599D01*
X136893325Y-78700924D01*
X136806675Y-78650896D01*
X136710028Y-78625000D01*
X136609972Y-78625000D01*
X136513325Y-78650896D01*
X136426675Y-78700924D01*
X136410000Y-78717599D01*
X136410000Y-77771521D01*
X136409999Y-77771521D01*
X136320458Y-77785703D01*
X136103397Y-77856229D01*
X135900033Y-77959849D01*
X135715385Y-78094004D01*
X135554004Y-78255385D01*
X135419849Y-78440033D01*
X135316230Y-78643395D01*
X135245704Y-78860455D01*
X135210000Y-79085883D01*
X133589463Y-79085883D01*
X133639966Y-79060150D01*
X133749330Y-78980693D01*
X133749331Y-78980692D01*
X133824608Y-78926000D01*
X133824614Y-78925995D01*
X133985995Y-78764614D01*
X134120150Y-78579966D01*
X134223769Y-78376604D01*
X134294295Y-78159544D01*
X134308478Y-78070000D01*
X133362401Y-78070000D01*
X133379076Y-78053325D01*
X133429104Y-77966675D01*
X133455000Y-77870028D01*
X133455000Y-77769972D01*
X133429104Y-77673325D01*
X133379076Y-77586675D01*
X133362401Y-77570000D01*
X134308478Y-77570000D01*
X134294295Y-77480455D01*
X134223769Y-77263395D01*
X134120150Y-77060033D01*
X133985995Y-76875385D01*
X133824614Y-76714004D01*
X133639966Y-76579849D01*
X133436604Y-76476230D01*
X133219544Y-76405704D01*
X132994116Y-76370000D01*
X132180000Y-76370000D01*
X132180000Y-77440000D01*
X131680000Y-77440000D01*
X131680000Y-76370000D01*
X130865884Y-76370000D01*
X130640455Y-76405704D01*
X130423395Y-76476230D01*
X130220033Y-76579849D01*
X130035385Y-76714004D01*
X129874004Y-76875385D01*
X129739849Y-77060033D01*
X129636230Y-77263395D01*
X129565704Y-77480455D01*
X129551522Y-77570000D01*
X122615302Y-77570000D01*
X122582952Y-77521585D01*
X122541822Y-77480455D01*
X122478416Y-77417049D01*
X121641216Y-76579849D01*
X120773549Y-75712181D01*
X120740064Y-75650858D01*
X120745048Y-75581166D01*
X120786920Y-75525233D01*
X120852384Y-75500816D01*
X120861230Y-75500500D01*
X139934108Y-75500500D01*
X140375500Y-75500500D01*
X140442539Y-75520185D01*
X140488294Y-75572989D01*
X140499500Y-75624500D01*
X140499500Y-144375500D01*
X140479815Y-144442539D01*
X140427011Y-144488294D01*
X140375500Y-144499500D01*
X100624500Y-144499500D01*
X100557461Y-144479815D01*
X100511706Y-144427011D01*
X100500500Y-144375500D01*
X100500500Y-101413713D01*
X103499500Y-101413713D01*
X103499500Y-101626286D01*
X103532753Y-101836239D01*
X103598444Y-102038414D01*
X103694951Y-102227820D01*
X103819890Y-102399786D01*
X103970213Y-102550109D01*
X104142179Y-102675048D01*
X104142181Y-102675049D01*
X104142184Y-102675051D01*
X104151493Y-102679794D01*
X104202290Y-102727766D01*
X104219087Y-102795587D01*
X104196552Y-102861722D01*
X104151505Y-102900760D01*
X104142446Y-102905376D01*
X104142440Y-102905380D01*
X104088282Y-102944727D01*
X104088282Y-102944728D01*
X104720591Y-103577037D01*
X104657007Y-103594075D01*
X104542993Y-103659901D01*
X104449901Y-103752993D01*
X104384075Y-103867007D01*
X104367037Y-103930591D01*
X103734728Y-103298282D01*
X103734727Y-103298282D01*
X103695380Y-103352439D01*
X103598904Y-103541782D01*
X103533242Y-103743869D01*
X103533242Y-103743872D01*
X103500000Y-103953753D01*
X103500000Y-104166246D01*
X103533242Y-104376127D01*
X103533242Y-104376130D01*
X103598904Y-104578217D01*
X103695375Y-104767550D01*
X103734728Y-104821716D01*
X104367037Y-104189408D01*
X104384075Y-104252993D01*
X104449901Y-104367007D01*
X104542993Y-104460099D01*
X104657007Y-104525925D01*
X104720590Y-104542962D01*
X104088282Y-105175269D01*
X104088282Y-105175270D01*
X104142452Y-105214626D01*
X104142451Y-105214626D01*
X104151495Y-105219234D01*
X104202292Y-105267208D01*
X104219087Y-105335029D01*
X104196550Y-105401164D01*
X104151499Y-105440202D01*
X104142182Y-105444949D01*
X103970213Y-105569890D01*
X103819890Y-105720213D01*
X103694951Y-105892179D01*
X103598444Y-106081585D01*
X103532753Y-106283760D01*
X103527647Y-106316000D01*
X103499500Y-106493713D01*
X103499500Y-106706287D01*
X103532754Y-106916243D01*
X103576660Y-107051372D01*
X103598444Y-107118414D01*
X103694951Y-107307820D01*
X103819890Y-107479786D01*
X103970213Y-107630109D01*
X104142182Y-107755050D01*
X104150946Y-107759516D01*
X104201742Y-107807491D01*
X104218536Y-107875312D01*
X104195998Y-107941447D01*
X104150946Y-107980484D01*
X104142182Y-107984949D01*
X103970213Y-108109890D01*
X103819890Y-108260213D01*
X103694951Y-108432179D01*
X103598444Y-108621585D01*
X103532753Y-108823760D01*
X103531966Y-108828731D01*
X103499500Y-109033713D01*
X103499500Y-109246287D01*
X103532754Y-109456243D01*
X103559452Y-109538412D01*
X103598444Y-109658414D01*
X103694951Y-109847820D01*
X103819890Y-110019786D01*
X103970213Y-110170109D01*
X104142182Y-110295050D01*
X104150946Y-110299516D01*
X104201742Y-110347491D01*
X104218536Y-110415312D01*
X104195998Y-110481447D01*
X104150946Y-110520484D01*
X104142182Y-110524949D01*
X103970213Y-110649890D01*
X103819890Y-110800213D01*
X103694951Y-110972179D01*
X103598444Y-111161585D01*
X103532753Y-111363760D01*
X103519059Y-111450224D01*
X103499500Y-111573713D01*
X103499500Y-111786287D01*
X103532754Y-111996243D01*
X103587427Y-112164509D01*
X103598444Y-112198414D01*
X103694951Y-112387820D01*
X103819890Y-112559786D01*
X103970213Y-112710109D01*
X104142182Y-112835050D01*
X104150946Y-112839516D01*
X104201742Y-112887491D01*
X104218536Y-112955312D01*
X104195998Y-113021447D01*
X104150946Y-113060484D01*
X104142182Y-113064949D01*
X103970213Y-113189890D01*
X103819890Y-113340213D01*
X103694951Y-113512179D01*
X103598444Y-113701585D01*
X103532753Y-113903760D01*
X103501076Y-114103763D01*
X103499500Y-114113713D01*
X103499500Y-114326287D01*
X103532754Y-114536243D01*
X103559452Y-114618412D01*
X103598444Y-114738414D01*
X103694951Y-114927820D01*
X103819890Y-115099786D01*
X103970213Y-115250109D01*
X104142182Y-115375050D01*
X104150946Y-115379516D01*
X104201742Y-115427491D01*
X104218536Y-115495312D01*
X104195998Y-115561447D01*
X104150946Y-115600484D01*
X104142182Y-115604949D01*
X103970213Y-115729890D01*
X103819890Y-115880213D01*
X103694951Y-116052179D01*
X103598444Y-116241585D01*
X103532753Y-116443760D01*
X103518506Y-116533713D01*
X103499500Y-116653713D01*
X103499500Y-116866287D01*
X103532754Y-117076243D01*
X103559452Y-117158412D01*
X103598444Y-117278414D01*
X103694951Y-117467820D01*
X103819890Y-117639786D01*
X103970213Y-117790109D01*
X104142182Y-117915050D01*
X104150946Y-117919516D01*
X104201742Y-117967491D01*
X104218536Y-118035312D01*
X104195998Y-118101447D01*
X104150946Y-118140484D01*
X104142182Y-118144949D01*
X103970213Y-118269890D01*
X103819890Y-118420213D01*
X103694951Y-118592179D01*
X103598444Y-118781585D01*
X103532753Y-118983760D01*
X103524364Y-119036726D01*
X103499500Y-119193713D01*
X103499500Y-119406287D01*
X103532754Y-119616243D01*
X103559452Y-119698412D01*
X103598444Y-119818414D01*
X103694951Y-120007820D01*
X103819890Y-120179786D01*
X103970213Y-120330109D01*
X104142182Y-120455050D01*
X104150946Y-120459516D01*
X104201742Y-120507491D01*
X104218536Y-120575312D01*
X104195998Y-120641447D01*
X104150946Y-120680484D01*
X104142182Y-120684949D01*
X103970213Y-120809890D01*
X103819890Y-120960213D01*
X103694951Y-121132179D01*
X103598444Y-121321585D01*
X103532753Y-121523760D01*
X103518506Y-121613713D01*
X103499500Y-121733713D01*
X103499500Y-121946287D01*
X103532754Y-122156243D01*
X103559452Y-122238412D01*
X103598444Y-122358414D01*
X103694951Y-122547820D01*
X103819890Y-122719786D01*
X103970213Y-122870109D01*
X104142182Y-122995050D01*
X104150946Y-122999516D01*
X104201742Y-123047491D01*
X104218536Y-123115312D01*
X104195998Y-123181447D01*
X104150946Y-123220484D01*
X104142182Y-123224949D01*
X103970213Y-123349890D01*
X103819890Y-123500213D01*
X103694951Y-123672179D01*
X103598444Y-123861585D01*
X103532753Y-124063760D01*
X103524525Y-124115712D01*
X103499500Y-124273713D01*
X103499500Y-124486287D01*
X103532754Y-124696243D01*
X103559452Y-124778412D01*
X103598444Y-124898414D01*
X103694951Y-125087820D01*
X103819890Y-125259786D01*
X103970213Y-125410109D01*
X104142182Y-125535050D01*
X104150946Y-125539516D01*
X104201742Y-125587491D01*
X104218536Y-125655312D01*
X104195998Y-125721447D01*
X104150946Y-125760484D01*
X104142182Y-125764949D01*
X103970213Y-125889890D01*
X103819890Y-126040213D01*
X103694951Y-126212179D01*
X103598444Y-126401585D01*
X103532753Y-126603760D01*
X103518506Y-126693713D01*
X103499500Y-126813713D01*
X103499500Y-127026287D01*
X103532754Y-127236243D01*
X103559452Y-127318412D01*
X103598444Y-127438414D01*
X103694951Y-127627820D01*
X103819890Y-127799786D01*
X103970213Y-127950109D01*
X104142182Y-128075050D01*
X104150946Y-128079516D01*
X104201742Y-128127491D01*
X104218536Y-128195312D01*
X104195998Y-128261447D01*
X104150946Y-128300484D01*
X104142182Y-128304949D01*
X103970213Y-128429890D01*
X103819890Y-128580213D01*
X103694951Y-128752179D01*
X103598444Y-128941585D01*
X103532753Y-129143760D01*
X103499500Y-129353713D01*
X103499500Y-129566286D01*
X103530009Y-129758917D01*
X103532754Y-129776243D01*
X103583983Y-129933910D01*
X103598444Y-129978414D01*
X103694951Y-130167820D01*
X103819890Y-130339786D01*
X103970213Y-130490109D01*
X104142182Y-130615050D01*
X104150946Y-130619516D01*
X104201742Y-130667491D01*
X104218536Y-130735312D01*
X104195998Y-130801447D01*
X104150946Y-130840484D01*
X104142182Y-130844949D01*
X103970213Y-130969890D01*
X103819890Y-131120213D01*
X103694951Y-131292179D01*
X103598444Y-131481585D01*
X103532753Y-131683760D01*
X103518506Y-131773713D01*
X103499500Y-131893713D01*
X103499500Y-132106287D01*
X103532754Y-132316243D01*
X103559452Y-132398412D01*
X103598444Y-132518414D01*
X103694951Y-132707820D01*
X103819890Y-132879786D01*
X103970213Y-133030109D01*
X104142182Y-133155050D01*
X104150946Y-133159516D01*
X104201742Y-133207491D01*
X104218536Y-133275312D01*
X104195998Y-133341447D01*
X104150946Y-133380484D01*
X104142182Y-133384949D01*
X103970213Y-133509890D01*
X103819890Y-133660213D01*
X103694951Y-133832179D01*
X103598444Y-134021585D01*
X103532753Y-134223760D01*
X103524525Y-134275713D01*
X103499500Y-134433713D01*
X103499500Y-134646287D01*
X103532754Y-134856243D01*
X103559452Y-134938412D01*
X103598444Y-135058414D01*
X103694951Y-135247820D01*
X103819890Y-135419786D01*
X103933430Y-135533326D01*
X103966915Y-135594649D01*
X103961931Y-135664341D01*
X103920059Y-135720274D01*
X103889083Y-135737189D01*
X103757669Y-135786203D01*
X103757664Y-135786206D01*
X103642455Y-135872452D01*
X103642452Y-135872455D01*
X103556206Y-135987664D01*
X103556202Y-135987671D01*
X103505908Y-136122517D01*
X103499501Y-136182116D01*
X103499501Y-136182123D01*
X103499500Y-136182135D01*
X103499500Y-137977870D01*
X103499501Y-137977876D01*
X103505908Y-138037483D01*
X103556202Y-138172328D01*
X103556206Y-138172335D01*
X103642452Y-138287544D01*
X103642455Y-138287547D01*
X103757664Y-138373793D01*
X103757671Y-138373797D01*
X103892517Y-138424091D01*
X103892516Y-138424091D01*
X103899444Y-138424835D01*
X103952127Y-138430500D01*
X105747872Y-138430499D01*
X105807483Y-138424091D01*
X105942331Y-138373796D01*
X106057546Y-138287546D01*
X106143796Y-138172331D01*
X106194091Y-138037483D01*
X106200500Y-137977873D01*
X106200499Y-136182128D01*
X106194091Y-136122517D01*
X106143796Y-135987669D01*
X106143795Y-135987668D01*
X106143793Y-135987664D01*
X106057547Y-135872455D01*
X106057544Y-135872452D01*
X105942335Y-135786206D01*
X105942328Y-135786202D01*
X105810917Y-135737189D01*
X105754983Y-135695318D01*
X105730566Y-135629853D01*
X105745418Y-135561580D01*
X105766563Y-135533332D01*
X105880104Y-135419792D01*
X106005051Y-135247816D01*
X106101557Y-135058412D01*
X106167246Y-134856243D01*
X106200500Y-134646287D01*
X106200500Y-134433713D01*
X106167246Y-134223757D01*
X106101557Y-134021588D01*
X106005051Y-133832184D01*
X106005049Y-133832181D01*
X106005048Y-133832179D01*
X105880109Y-133660213D01*
X105729786Y-133509890D01*
X105557820Y-133384951D01*
X105557115Y-133384591D01*
X105549054Y-133380485D01*
X105498259Y-133332512D01*
X105481463Y-133264692D01*
X105503999Y-133198556D01*
X105549054Y-133159515D01*
X105557816Y-133155051D01*
X105650805Y-133087491D01*
X105729786Y-133030109D01*
X105729788Y-133030106D01*
X105729792Y-133030104D01*
X105880104Y-132879792D01*
X105880106Y-132879788D01*
X105880109Y-132879786D01*
X106005048Y-132707820D01*
X106005047Y-132707820D01*
X106005051Y-132707816D01*
X106101557Y-132518412D01*
X106167246Y-132316243D01*
X106200500Y-132106287D01*
X106200500Y-131893713D01*
X106167246Y-131683757D01*
X106101557Y-131481588D01*
X106005051Y-131292184D01*
X106005049Y-131292181D01*
X106005048Y-131292179D01*
X105880109Y-131120213D01*
X105729786Y-130969890D01*
X105557820Y-130844951D01*
X105557115Y-130844591D01*
X105549054Y-130840485D01*
X105498259Y-130792512D01*
X105481463Y-130724692D01*
X105503999Y-130658556D01*
X105549054Y-130619515D01*
X105557816Y-130615051D01*
X105650805Y-130547491D01*
X105729786Y-130490109D01*
X105729788Y-130490106D01*
X105729792Y-130490104D01*
X105880104Y-130339792D01*
X105880106Y-130339788D01*
X105880109Y-130339786D01*
X106005048Y-130167820D01*
X106005047Y-130167820D01*
X106005051Y-130167816D01*
X106101557Y-129978412D01*
X106167246Y-129776243D01*
X106200500Y-129566287D01*
X106200500Y-129353713D01*
X106167246Y-129143757D01*
X106101557Y-128941588D01*
X106005051Y-128752184D01*
X106005049Y-128752181D01*
X106005048Y-128752179D01*
X105880109Y-128580213D01*
X105729786Y-128429890D01*
X105557820Y-128304951D01*
X105557115Y-128304591D01*
X105549054Y-128300485D01*
X105498259Y-128252512D01*
X105481463Y-128184692D01*
X105503999Y-128118556D01*
X105549054Y-128079515D01*
X105557816Y-128075051D01*
X105650805Y-128007491D01*
X105729786Y-127950109D01*
X105729788Y-127950106D01*
X105729792Y-127950104D01*
X105880104Y-127799792D01*
X105880106Y-127799788D01*
X105880109Y-127799786D01*
X106005048Y-127627820D01*
X106005047Y-127627820D01*
X106005051Y-127627816D01*
X106101557Y-127438412D01*
X106167246Y-127236243D01*
X106200500Y-127026287D01*
X106200500Y-126813713D01*
X106167246Y-126603757D01*
X106101557Y-126401588D01*
X106005051Y-126212184D01*
X106005049Y-126212181D01*
X106005048Y-126212179D01*
X105880109Y-126040213D01*
X105729786Y-125889890D01*
X105557820Y-125764951D01*
X105557115Y-125764591D01*
X105549054Y-125760485D01*
X105498259Y-125712512D01*
X105481463Y-125644692D01*
X105503999Y-125578556D01*
X105549054Y-125539515D01*
X105557816Y-125535051D01*
X105650805Y-125467491D01*
X105729786Y-125410109D01*
X105729788Y-125410106D01*
X105729792Y-125410104D01*
X105880104Y-125259792D01*
X105880106Y-125259788D01*
X105880109Y-125259786D01*
X106005048Y-125087820D01*
X106005047Y-125087820D01*
X106005051Y-125087816D01*
X106101557Y-124898412D01*
X106167246Y-124696243D01*
X106200500Y-124486287D01*
X106200500Y-124273713D01*
X106167246Y-124063757D01*
X106101557Y-123861588D01*
X106005051Y-123672184D01*
X106005049Y-123672181D01*
X106005048Y-123672179D01*
X105880109Y-123500213D01*
X105729786Y-123349890D01*
X105557820Y-123224951D01*
X105557115Y-123224591D01*
X105549054Y-123220485D01*
X105498259Y-123172512D01*
X105481463Y-123104692D01*
X105503999Y-123038556D01*
X105549054Y-122999515D01*
X105557816Y-122995051D01*
X105650805Y-122927491D01*
X105729786Y-122870109D01*
X105729788Y-122870106D01*
X105729792Y-122870104D01*
X105880104Y-122719792D01*
X105880106Y-122719788D01*
X105880109Y-122719786D01*
X106005048Y-122547820D01*
X106005047Y-122547820D01*
X106005051Y-122547816D01*
X106101557Y-122358412D01*
X106167246Y-122156243D01*
X106200500Y-121946287D01*
X106200500Y-121733713D01*
X106167246Y-121523757D01*
X106101557Y-121321588D01*
X106005051Y-121132184D01*
X106005049Y-121132181D01*
X106005048Y-121132179D01*
X105880109Y-120960213D01*
X105729786Y-120809890D01*
X105557820Y-120684951D01*
X105557115Y-120684591D01*
X105549054Y-120680485D01*
X105498259Y-120632512D01*
X105481463Y-120564692D01*
X105503999Y-120498556D01*
X105549054Y-120459515D01*
X105557816Y-120455051D01*
X105650805Y-120387491D01*
X105729786Y-120330109D01*
X105729788Y-120330106D01*
X105729792Y-120330104D01*
X105880104Y-120179792D01*
X105880106Y-120179788D01*
X105880109Y-120179786D01*
X106005048Y-120007820D01*
X106005047Y-120007820D01*
X106005051Y-120007816D01*
X106101557Y-119818412D01*
X106167246Y-119616243D01*
X106200500Y-119406287D01*
X106200500Y-119193713D01*
X106167246Y-118983757D01*
X106101557Y-118781588D01*
X106005051Y-118592184D01*
X106005049Y-118592181D01*
X106005048Y-118592179D01*
X105880109Y-118420213D01*
X105729786Y-118269890D01*
X105557820Y-118144951D01*
X105557115Y-118144591D01*
X105549054Y-118140485D01*
X105498259Y-118092512D01*
X105481463Y-118024692D01*
X105503999Y-117958556D01*
X105549054Y-117919515D01*
X105557816Y-117915051D01*
X105590153Y-117891557D01*
X105729786Y-117790109D01*
X105729788Y-117790106D01*
X105729792Y-117790104D01*
X105880104Y-117639792D01*
X105880106Y-117639788D01*
X105880109Y-117639786D01*
X106005048Y-117467820D01*
X106005047Y-117467820D01*
X106005051Y-117467816D01*
X106101557Y-117278412D01*
X106167246Y-117076243D01*
X106200500Y-116866287D01*
X106200500Y-116653713D01*
X106167246Y-116443757D01*
X106101557Y-116241588D01*
X106005051Y-116052184D01*
X106005049Y-116052181D01*
X106005048Y-116052179D01*
X105880109Y-115880213D01*
X105729786Y-115729890D01*
X105557820Y-115604951D01*
X105557115Y-115604591D01*
X105549054Y-115600485D01*
X105498259Y-115552512D01*
X105481463Y-115484692D01*
X105503999Y-115418556D01*
X105549054Y-115379515D01*
X105557816Y-115375051D01*
X105650805Y-115307491D01*
X105729786Y-115250109D01*
X105729788Y-115250106D01*
X105729792Y-115250104D01*
X105880104Y-115099792D01*
X105880106Y-115099788D01*
X105880109Y-115099786D01*
X106005048Y-114927820D01*
X106005047Y-114927820D01*
X106005051Y-114927816D01*
X106101557Y-114738412D01*
X106167246Y-114536243D01*
X106200500Y-114326287D01*
X106200500Y-114113713D01*
X106167246Y-113903757D01*
X106101557Y-113701588D01*
X106005051Y-113512184D01*
X106005049Y-113512181D01*
X106005048Y-113512179D01*
X105880109Y-113340213D01*
X105729786Y-113189890D01*
X105557820Y-113064951D01*
X105557115Y-113064591D01*
X105549054Y-113060485D01*
X105498259Y-113012512D01*
X105481463Y-112944692D01*
X105503999Y-112878556D01*
X105549054Y-112839515D01*
X105557816Y-112835051D01*
X105650805Y-112767491D01*
X105729786Y-112710109D01*
X105729788Y-112710106D01*
X105729792Y-112710104D01*
X105880104Y-112559792D01*
X105880106Y-112559788D01*
X105880109Y-112559786D01*
X106005048Y-112387820D01*
X106005047Y-112387820D01*
X106005051Y-112387816D01*
X106101557Y-112198412D01*
X106167246Y-111996243D01*
X106200500Y-111786287D01*
X106200500Y-111573713D01*
X106167246Y-111363757D01*
X106101557Y-111161588D01*
X106005051Y-110972184D01*
X106005049Y-110972181D01*
X106005048Y-110972179D01*
X105880109Y-110800213D01*
X105729786Y-110649890D01*
X105557820Y-110524951D01*
X105557115Y-110524591D01*
X105549054Y-110520485D01*
X105498259Y-110472512D01*
X105481463Y-110404692D01*
X105503999Y-110338556D01*
X105549054Y-110299515D01*
X105557816Y-110295051D01*
X105650805Y-110227491D01*
X105729786Y-110170109D01*
X105729788Y-110170106D01*
X105729792Y-110170104D01*
X105880104Y-110019792D01*
X105880106Y-110019788D01*
X105880109Y-110019786D01*
X106005048Y-109847820D01*
X106005047Y-109847820D01*
X106005051Y-109847816D01*
X106101557Y-109658412D01*
X106167246Y-109456243D01*
X106200500Y-109246287D01*
X106200500Y-109033713D01*
X106167246Y-108823757D01*
X106101557Y-108621588D01*
X106005051Y-108432184D01*
X106005049Y-108432181D01*
X106005048Y-108432179D01*
X105880109Y-108260213D01*
X105729786Y-108109890D01*
X105557820Y-107984951D01*
X105557115Y-107984591D01*
X105549054Y-107980485D01*
X105498259Y-107932512D01*
X105481463Y-107864692D01*
X105503999Y-107798556D01*
X105549054Y-107759515D01*
X105557816Y-107755051D01*
X105624882Y-107706325D01*
X105729786Y-107630109D01*
X105729788Y-107630106D01*
X105729792Y-107630104D01*
X105880104Y-107479792D01*
X105880106Y-107479788D01*
X105880109Y-107479786D01*
X106005048Y-107307820D01*
X106005047Y-107307820D01*
X106005051Y-107307816D01*
X106101557Y-107118412D01*
X106167246Y-106916243D01*
X106200500Y-106706287D01*
X106200500Y-106493713D01*
X106167246Y-106283757D01*
X106101557Y-106081588D01*
X106005051Y-105892184D01*
X106005049Y-105892181D01*
X106005048Y-105892179D01*
X105880109Y-105720213D01*
X105729786Y-105569890D01*
X105557817Y-105444949D01*
X105548504Y-105440204D01*
X105497707Y-105392230D01*
X105480912Y-105324409D01*
X105503449Y-105258274D01*
X105548507Y-105219232D01*
X105557555Y-105214622D01*
X105611716Y-105175270D01*
X105611717Y-105175270D01*
X104979408Y-104542962D01*
X105042993Y-104525925D01*
X105157007Y-104460099D01*
X105250099Y-104367007D01*
X105315925Y-104252993D01*
X105332962Y-104189409D01*
X105965270Y-104821717D01*
X105965270Y-104821716D01*
X106004622Y-104767554D01*
X106101095Y-104578217D01*
X106166757Y-104376130D01*
X106166757Y-104376127D01*
X106200000Y-104166246D01*
X106200000Y-103953753D01*
X106166757Y-103743872D01*
X106166757Y-103743869D01*
X106101095Y-103541782D01*
X106004624Y-103352449D01*
X105965270Y-103298282D01*
X105965269Y-103298282D01*
X105332962Y-103930590D01*
X105315925Y-103867007D01*
X105250099Y-103752993D01*
X105157007Y-103659901D01*
X105042993Y-103594075D01*
X104979409Y-103577037D01*
X105611716Y-102944728D01*
X105557547Y-102905373D01*
X105557547Y-102905372D01*
X105548500Y-102900763D01*
X105497706Y-102852788D01*
X105480912Y-102784966D01*
X105503451Y-102718832D01*
X105548508Y-102679793D01*
X105557816Y-102675051D01*
X105650732Y-102607544D01*
X105729786Y-102550109D01*
X105729788Y-102550106D01*
X105729792Y-102550104D01*
X105880104Y-102399792D01*
X105880106Y-102399788D01*
X105880109Y-102399786D01*
X106005048Y-102227820D01*
X106005047Y-102227820D01*
X106005051Y-102227816D01*
X106101557Y-102038412D01*
X106167246Y-101836243D01*
X106200500Y-101626287D01*
X106200500Y-101413713D01*
X106167246Y-101203757D01*
X106101557Y-101001588D01*
X106005051Y-100812184D01*
X106005049Y-100812181D01*
X106005048Y-100812179D01*
X105880109Y-100640213D01*
X105729786Y-100489890D01*
X105557820Y-100364951D01*
X105368414Y-100268444D01*
X105368413Y-100268443D01*
X105368412Y-100268443D01*
X105166243Y-100202754D01*
X105166241Y-100202753D01*
X105166240Y-100202753D01*
X105004957Y-100177208D01*
X104956287Y-100169500D01*
X104743713Y-100169500D01*
X104695042Y-100177208D01*
X104533760Y-100202753D01*
X104331585Y-100268444D01*
X104142179Y-100364951D01*
X103970213Y-100489890D01*
X103819890Y-100640213D01*
X103694951Y-100812179D01*
X103598444Y-101001585D01*
X103532753Y-101203760D01*
X103499500Y-101413713D01*
X100500500Y-101413713D01*
X100500500Y-75624500D01*
X100520185Y-75557461D01*
X100572989Y-75511706D01*
X100624500Y-75500500D01*
X106138771Y-75500500D01*
X106205810Y-75520185D01*
G37*
%TD.AperFunction*%
%TA.AperFunction,Conductor*%
G36*
X133955703Y-98071069D02*
G01*
X133962181Y-98077101D01*
X134438181Y-98553101D01*
X134471666Y-98614424D01*
X134474500Y-98640782D01*
X134474500Y-104812000D01*
X134454815Y-104879039D01*
X134402011Y-104924794D01*
X134350500Y-104936000D01*
X134250000Y-104936000D01*
X134250000Y-105756988D01*
X134192993Y-105724075D01*
X134065826Y-105690000D01*
X133934174Y-105690000D01*
X133807007Y-105724075D01*
X133750000Y-105756988D01*
X133750000Y-104936000D01*
X133198155Y-104936000D01*
X133138627Y-104942401D01*
X133138620Y-104942403D01*
X133003913Y-104992645D01*
X133003906Y-104992649D01*
X132888812Y-105078809D01*
X132888809Y-105078812D01*
X132802649Y-105193906D01*
X132802645Y-105193913D01*
X132752403Y-105328620D01*
X132752401Y-105328627D01*
X132746000Y-105388155D01*
X132746000Y-105940000D01*
X133566988Y-105940000D01*
X133534075Y-105997007D01*
X133500000Y-106124174D01*
X133500000Y-106255826D01*
X133534075Y-106382993D01*
X133566988Y-106440000D01*
X132746000Y-106440000D01*
X132746000Y-106991844D01*
X132752401Y-107051372D01*
X132752403Y-107051379D01*
X132802645Y-107186086D01*
X132802649Y-107186093D01*
X132888809Y-107301187D01*
X132888812Y-107301190D01*
X133003906Y-107387350D01*
X133003913Y-107387354D01*
X133138620Y-107437596D01*
X133138627Y-107437598D01*
X133198155Y-107443999D01*
X133198172Y-107444000D01*
X133254112Y-107444000D01*
X133321151Y-107463685D01*
X133366906Y-107516489D01*
X133376850Y-107585647D01*
X133347825Y-107649203D01*
X133326997Y-107668318D01*
X133182753Y-107773115D01*
X133043115Y-107912753D01*
X132927058Y-108072495D01*
X132837408Y-108248441D01*
X132776389Y-108436236D01*
X132745500Y-108631263D01*
X132745500Y-108828736D01*
X132776390Y-109023764D01*
X132776390Y-109023767D01*
X132782374Y-109042182D01*
X132784369Y-109112023D01*
X132748289Y-109171856D01*
X132685588Y-109202684D01*
X132664443Y-109204500D01*
X131744500Y-109204500D01*
X131677461Y-109184815D01*
X131631706Y-109132011D01*
X131620500Y-109080500D01*
X131620500Y-108913713D01*
X131587246Y-108703760D01*
X131587246Y-108703757D01*
X131521557Y-108501588D01*
X131425051Y-108312184D01*
X131425049Y-108312181D01*
X131425048Y-108312179D01*
X131300109Y-108140213D01*
X131149786Y-107989890D01*
X130977820Y-107864951D01*
X130977115Y-107864591D01*
X130969054Y-107860485D01*
X130918259Y-107812512D01*
X130901463Y-107744692D01*
X130923999Y-107678556D01*
X130969054Y-107639515D01*
X130977816Y-107635051D01*
X130999789Y-107619086D01*
X131149786Y-107510109D01*
X131149788Y-107510106D01*
X131149792Y-107510104D01*
X131300104Y-107359792D01*
X131300106Y-107359788D01*
X131300109Y-107359786D01*
X131425048Y-107187820D01*
X131425047Y-107187820D01*
X131425051Y-107187816D01*
X131521557Y-106998412D01*
X131587246Y-106796243D01*
X131620500Y-106586287D01*
X131620500Y-106373713D01*
X131587246Y-106163757D01*
X131521557Y-105961588D01*
X131425051Y-105772184D01*
X131425049Y-105772181D01*
X131425048Y-105772179D01*
X131300109Y-105600213D01*
X131149786Y-105449890D01*
X130977817Y-105324949D01*
X130968504Y-105320204D01*
X130917707Y-105272230D01*
X130900912Y-105204409D01*
X130923449Y-105138274D01*
X130968507Y-105099232D01*
X130977555Y-105094622D01*
X131031716Y-105055270D01*
X131031717Y-105055270D01*
X130399408Y-104422962D01*
X130462993Y-104405925D01*
X130577007Y-104340099D01*
X130670099Y-104247007D01*
X130735925Y-104132993D01*
X130752962Y-104069408D01*
X131385270Y-104701717D01*
X131385270Y-104701716D01*
X131424622Y-104647554D01*
X131521095Y-104458217D01*
X131586757Y-104256130D01*
X131586757Y-104256127D01*
X131620000Y-104046246D01*
X131620000Y-103833753D01*
X131586757Y-103623872D01*
X131586757Y-103623869D01*
X131521095Y-103421782D01*
X131424624Y-103232449D01*
X131385270Y-103178282D01*
X131385269Y-103178282D01*
X130752962Y-103810590D01*
X130735925Y-103747007D01*
X130670099Y-103632993D01*
X130577007Y-103539901D01*
X130462993Y-103474075D01*
X130399409Y-103457037D01*
X131069627Y-102786818D01*
X131130950Y-102753333D01*
X131157307Y-102750499D01*
X131167872Y-102750499D01*
X131227483Y-102744091D01*
X131362331Y-102693796D01*
X131477546Y-102607546D01*
X131563796Y-102492331D01*
X131614091Y-102357483D01*
X131620500Y-102297873D01*
X131620499Y-101162228D01*
X131640184Y-101095190D01*
X131656813Y-101074553D01*
X133582952Y-99148416D01*
X133649044Y-99049500D01*
X133665084Y-99025495D01*
X133721658Y-98888913D01*
X133743989Y-98776652D01*
X133750500Y-98743920D01*
X133750500Y-98164782D01*
X133770185Y-98097743D01*
X133822989Y-98051988D01*
X133892147Y-98042044D01*
X133955703Y-98071069D01*
G37*
%TD.AperFunction*%
%TA.AperFunction,Conductor*%
G36*
X119704809Y-76770185D02*
G01*
X119725451Y-76786819D01*
X121213181Y-78274548D01*
X121246666Y-78335871D01*
X121249500Y-78362229D01*
X121249500Y-78636598D01*
X121229815Y-78703637D01*
X121177011Y-78749392D01*
X121107853Y-78759336D01*
X121086497Y-78754304D01*
X120952799Y-78710001D01*
X120952795Y-78710000D01*
X120850010Y-78699500D01*
X117749998Y-78699500D01*
X117749981Y-78699501D01*
X117647203Y-78710000D01*
X117647200Y-78710001D01*
X117480668Y-78765185D01*
X117480663Y-78765187D01*
X117331342Y-78857289D01*
X117207289Y-78981342D01*
X117115187Y-79130663D01*
X117115185Y-79130668D01*
X117115115Y-79130880D01*
X117060001Y-79297203D01*
X117060001Y-79297204D01*
X117060000Y-79297204D01*
X117049500Y-79399983D01*
X117049500Y-80600001D01*
X117049501Y-80600018D01*
X117060000Y-80702796D01*
X117060001Y-80702799D01*
X117115115Y-80869119D01*
X117115186Y-80869334D01*
X117207288Y-81018656D01*
X117331344Y-81142712D01*
X117480666Y-81234814D01*
X117647203Y-81289999D01*
X117749991Y-81300500D01*
X118175500Y-81300499D01*
X118242539Y-81320183D01*
X118288294Y-81372987D01*
X118299500Y-81424499D01*
X118299500Y-84128544D01*
X118335847Y-84311276D01*
X118335848Y-84311276D01*
X118337950Y-84321838D01*
X118337951Y-84321842D01*
X118413364Y-84503907D01*
X118413371Y-84503920D01*
X118493636Y-84624044D01*
X118514514Y-84690721D01*
X118496030Y-84758102D01*
X118444051Y-84804792D01*
X118428852Y-84810866D01*
X118311783Y-84848904D01*
X118122439Y-84945380D01*
X118068282Y-84984727D01*
X118068282Y-84984728D01*
X118700591Y-85617037D01*
X118637007Y-85634075D01*
X118522993Y-85699901D01*
X118429901Y-85792993D01*
X118364075Y-85907007D01*
X118347037Y-85970591D01*
X117714728Y-85338282D01*
X117714727Y-85338282D01*
X117675380Y-85392439D01*
X117578905Y-85581781D01*
X117567036Y-85618310D01*
X117527598Y-85675985D01*
X117463239Y-85703183D01*
X117394393Y-85691268D01*
X117361424Y-85667672D01*
X109446661Y-77752909D01*
X109416412Y-77703547D01*
X109390568Y-77624008D01*
X109283343Y-77413567D01*
X109144517Y-77222490D01*
X108977510Y-77055483D01*
X108866483Y-76974817D01*
X108823819Y-76919488D01*
X108817840Y-76849874D01*
X108850446Y-76788079D01*
X108911285Y-76753722D01*
X108939370Y-76750500D01*
X119637770Y-76750500D01*
X119704809Y-76770185D01*
G37*
%TD.AperFunction*%
%TD*%
M02*
