%TF.GenerationSoftware,KiCad,Pcbnew,9.0.7*%
%TF.CreationDate,2026-03-19T13:49:58-03:00*%
%TF.ProjectId,circuito_pituca,63697263-7569-4746-9f5f-706974756361,1.0*%
%TF.SameCoordinates,Original*%
%TF.FileFunction,Soldermask,Top*%
%TF.FilePolarity,Negative*%
%FSLAX46Y46*%
G04 Gerber Fmt 4.6, Leading zero omitted, Abs format (unit mm)*
G04 Created by KiCad (PCBNEW 9.0.7) date 2026-03-19 13:49:58*
%MOMM*%
%LPD*%
G01*
G04 APERTURE LIST*
G04 Aperture macros list*
%AMRoundRect*
0 Rectangle with rounded corners*
0 $1 Rounding radius*
0 $2 $3 $4 $5 $6 $7 $8 $9 X,Y pos of 4 corners*
0 Add a 4 corners polygon primitive as box body*
4,1,4,$2,$3,$4,$5,$6,$7,$8,$9,$2,$3,0*
0 Add four circle primitives for the rounded corners*
1,1,$1+$1,$2,$3*
1,1,$1+$1,$4,$5*
1,1,$1+$1,$6,$7*
1,1,$1+$1,$8,$9*
0 Add four rect primitives between the rounded corners*
20,1,$1+$1,$2,$3,$4,$5,0*
20,1,$1+$1,$4,$5,$6,$7,0*
20,1,$1+$1,$6,$7,$8,$9,0*
20,1,$1+$1,$8,$9,$2,$3,0*%
G04 Aperture macros list end*
%ADD10RoundRect,0.250000X-0.325000X-0.450000X0.325000X-0.450000X0.325000X0.450000X-0.325000X0.450000X0*%
%ADD11R,2.000000X2.000000*%
%ADD12C,2.000000*%
%ADD13RoundRect,0.250000X-1.500000X-0.550000X1.500000X-0.550000X1.500000X0.550000X-1.500000X0.550000X0*%
%ADD14RoundRect,0.250000X0.450000X-0.262500X0.450000X0.262500X-0.450000X0.262500X-0.450000X-0.262500X0*%
%ADD15RoundRect,0.102000X-0.754000X0.754000X-0.754000X-0.754000X0.754000X-0.754000X0.754000X0.754000X0*%
%ADD16C,1.712000*%
%ADD17RoundRect,0.250000X0.262500X0.450000X-0.262500X0.450000X-0.262500X-0.450000X0.262500X-0.450000X0*%
%ADD18RoundRect,0.150000X-0.587500X-0.150000X0.587500X-0.150000X0.587500X0.150000X-0.587500X0.150000X0*%
%ADD19O,4.004000X2.104000*%
%ADD20O,2.104000X4.004000*%
%ADD21R,1.700000X1.700000*%
%ADD22C,1.700000*%
G04 APERTURE END LIST*
D10*
%TO.C,D1*%
X136950000Y-97000000D03*
X139000000Y-97000000D03*
%TD*%
D11*
%TO.C,BZ1*%
X108000000Y-85800000D03*
D12*
X108000000Y-78200000D03*
%TD*%
D13*
%TO.C,C1*%
X119300000Y-80000000D03*
X124700000Y-80000000D03*
%TD*%
D14*
%TO.C,R1*%
X116000000Y-91825000D03*
X116000000Y-90000000D03*
%TD*%
D15*
%TO.C,U2*%
X134000000Y-106190000D03*
D16*
X134000000Y-108730000D03*
X134000000Y-111270000D03*
X134000000Y-113810000D03*
%TD*%
D17*
%TO.C,R3*%
X134825000Y-95000000D03*
X133000000Y-95000000D03*
%TD*%
D18*
%TO.C,Q2*%
X119062500Y-90050000D03*
X119062500Y-91950000D03*
X120937500Y-91000000D03*
%TD*%
D16*
%TO.C,S1*%
X135000000Y-92500000D03*
X135000000Y-87500000D03*
%TD*%
D17*
%TO.C,R2*%
X138800000Y-100000000D03*
X136975000Y-100000000D03*
%TD*%
D19*
%TO.C,J1*%
X131930000Y-83750000D03*
X131930000Y-77820000D03*
D20*
X136660000Y-80150000D03*
%TD*%
D21*
%TO.C,J3*%
X104850000Y-137080000D03*
D22*
X104850000Y-134540000D03*
X104850000Y-132000000D03*
X104850000Y-129460000D03*
X104850000Y-126920000D03*
X104850000Y-124380000D03*
X104850000Y-121840000D03*
X104850000Y-119300000D03*
X104850000Y-116760000D03*
X104850000Y-114220000D03*
X104850000Y-111680000D03*
X104850000Y-109140000D03*
X104850000Y-106600000D03*
X104850000Y-104060000D03*
X104850000Y-101520000D03*
%TD*%
D21*
%TO.C,M1*%
X123910000Y-86100000D03*
D22*
X121370000Y-86100000D03*
X118830000Y-86100000D03*
%TD*%
D21*
%TO.C,J2*%
X130270000Y-101400000D03*
D22*
X130270000Y-103940000D03*
X130270000Y-106480000D03*
X130270000Y-109020000D03*
X130270000Y-111560000D03*
X130270000Y-114100000D03*
X130270000Y-116640000D03*
X130270000Y-119180000D03*
X130270000Y-121720000D03*
X130270000Y-124260000D03*
X130270000Y-126800000D03*
X130270000Y-129340000D03*
X130270000Y-131880000D03*
X130270000Y-134420000D03*
X130270000Y-136960000D03*
%TD*%
M02*
